<svg width="200" height="40" viewBox="0 0 200 40" fill="none" xmlns="http://www.w3.org/2000/svg">
<path d="M9.25596 15.7628L26.78 4.768C30.0968 2.6872 34.4 5.0796 34.4 9.0052V30.9948C34.4 34.92 30.0968 37.3128 26.78 35.232L9.25596 24.2372C6.13636 22.2796 6.13636 17.7204 9.25596 15.7628Z" fill="#4BB7FD"/>
<path d="M30.7441 15.7628L13.2201 4.768C9.9033 2.6872 5.6001 5.0796 5.6001 9.0052V30.9948C5.6001 34.92 9.9033 37.3128 13.2201 35.232L30.7441 24.2372C33.8637 22.2796 33.8637 17.7204 30.7441 15.7628Z" fill="#7B6EF6"/>
<path d="M192.805 30.8304C191.478 30.8304 190.283 30.5117 189.221 29.8743C188.158 29.2188 187.32 28.2992 186.706 27.1155C186.109 25.9319 185.81 24.5661 185.81 23.0183C185.81 21.4705 186.117 20.1047 186.731 18.9211C187.362 17.7374 188.217 16.8269 189.295 16.1896C190.374 15.534 191.577 15.2062 192.905 15.2062C194.233 15.2062 195.436 15.534 196.515 16.1896C197.593 16.8269 198.44 17.7374 199.054 18.9211C199.685 20.1047 200 21.4705 200 23.0183C200 24.5661 199.676 25.9319 199.029 27.1155C198.398 28.2992 197.535 29.2188 196.44 29.8743C195.361 30.5117 194.15 30.8304 192.805 30.8304ZM192.805 27.4979C193.436 27.4979 194.025 27.3341 194.573 27.0063C195.137 26.6603 195.585 26.1504 195.917 25.4766C196.249 24.8029 196.415 23.9834 196.415 23.0183C196.415 21.5797 196.067 20.478 195.37 19.7132C194.689 18.9302 193.851 18.5387 192.855 18.5387C191.859 18.5387 191.021 18.9302 190.341 19.7132C189.677 20.478 189.345 21.5797 189.345 23.0183C189.345 24.4569 189.669 25.5677 190.316 26.3507C190.98 27.1155 191.81 27.4979 192.805 27.4979Z" fill="#EBEEF5"/>
<path d="M180.807 30.5845L176.127 24.1382V30.5845H172.641V10.3715H176.127V21.8711L180.757 15.4521H185.288L179.214 23.0456L185.338 30.5845H180.807Z" fill="#EBEEF5"/>
<path d="M170.595 22.6905C170.595 23.2368 170.562 23.7285 170.496 24.1655H160.413C160.496 25.2581 160.845 26.114 161.459 26.7331C162.073 27.3523 162.828 27.6618 163.724 27.6618C165.019 27.6618 165.94 27.0518 166.488 25.8317H170.247C169.848 27.2885 169.085 28.4904 167.956 29.4373C166.828 30.366 165.442 30.8304 163.799 30.8304C162.471 30.8304 161.276 30.5117 160.214 29.8743C159.169 29.2188 158.347 28.2992 157.75 27.1155C157.169 25.9319 156.878 24.5661 156.878 23.0183C156.878 21.4522 157.169 20.0774 157.75 18.8937C158.331 17.7101 159.144 16.7996 160.189 16.1623C161.235 15.5249 162.438 15.2062 163.799 15.2062C165.11 15.2062 166.28 15.5158 167.309 16.1349C168.355 16.7541 169.16 17.6373 169.724 18.7845C170.305 19.9135 170.595 21.2155 170.595 22.6905ZM166.986 21.5979C166.969 20.6146 166.645 19.8316 166.015 19.2488C165.384 18.6479 164.612 18.3475 163.7 18.3475C162.837 18.3475 162.106 18.6388 161.509 19.2215C160.928 19.786 160.571 20.5782 160.438 21.5979H166.986Z" fill="#EBEEF5"/>
<path d="M151.693 17.8012C152.141 16.9999 152.722 16.3717 153.436 15.9164C154.166 15.4612 154.996 15.2336 155.925 15.2336V19.2488H155.004C153.909 19.2488 153.079 19.5311 152.515 20.0956C151.967 20.6601 151.693 21.6434 151.693 23.0456V30.5845H148.208V15.4521H151.693V17.8012Z" fill="#EBEEF5"/>
<path d="M146.162 22.6905C146.162 23.2368 146.129 23.7285 146.062 24.1655H135.98C136.063 25.2581 136.412 26.114 137.026 26.7331C137.64 27.3523 138.395 27.6618 139.291 27.6618C140.586 27.6618 141.507 27.0518 142.054 25.8317H145.813C145.415 27.2885 144.652 28.4904 143.523 29.4373C142.395 30.366 141.009 30.8304 139.366 30.8304C138.038 30.8304 136.843 30.5117 135.781 29.8743C134.735 29.2188 133.914 28.2992 133.316 27.1155C132.736 25.9319 132.445 24.5661 132.445 23.0183C132.445 21.4522 132.736 20.0774 133.316 18.8937C133.897 17.7101 134.71 16.7996 135.756 16.1623C136.802 15.5249 138.005 15.2062 139.366 15.2062C140.677 15.2062 141.847 15.5158 142.876 16.1349C143.921 16.7541 144.726 17.6373 145.291 18.7845C145.871 19.9135 146.162 21.2155 146.162 22.6905ZM142.552 21.5979C142.536 20.6146 142.212 19.8316 141.581 19.2488C140.951 18.6479 140.179 18.3475 139.266 18.3475C138.403 18.3475 137.673 18.6388 137.075 19.2215C136.495 19.786 136.138 20.5782 136.005 21.5979H142.552Z" fill="#EBEEF5"/>
<path d="M130.409 11.5187V30.5845H126.924V22.472H119.48V30.5845H115.995V11.5187H119.48V19.3581H126.924V11.5187H130.409Z" fill="#EBEEF5"/>
<path d="M113.949 22.6905C113.949 23.2368 113.916 23.7285 113.849 24.1655H103.767C103.85 25.2581 104.198 26.114 104.813 26.7331C105.427 27.3523 106.182 27.6618 107.078 27.6618C108.372 27.6618 109.294 27.0518 109.841 25.8317H113.6C113.202 27.2885 112.439 28.4904 111.31 29.4373C110.181 30.366 108.796 30.8304 107.153 30.8304C105.825 30.8304 104.63 30.5117 103.568 29.8743C102.522 29.2188 101.701 28.2992 101.103 27.1155C100.522 25.9319 100.232 24.5661 100.232 23.0183C100.232 21.4522 100.522 20.0774 101.103 18.8937C101.684 17.7101 102.497 16.7996 103.543 16.1623C104.588 15.5249 105.792 15.2062 107.153 15.2062C108.464 15.2062 109.634 15.5158 110.663 16.1349C111.708 16.7541 112.513 17.6373 113.077 18.7845C113.658 19.9135 113.949 21.2155 113.949 22.6905ZM110.339 21.5979C110.323 20.6146 109.999 19.8316 109.368 19.2488C108.738 18.6479 107.966 18.3475 107.053 18.3475C106.19 18.3475 105.46 18.6388 104.862 19.2215C104.281 19.786 103.925 20.5782 103.792 21.5979H110.339Z" fill="#EBEEF5"/>
<path d="M98.1825 10.3715V30.5845H94.6973V10.3715H98.1825Z" fill="#EBEEF5"/>
<path d="M90.034 13.6493C89.4199 13.6493 88.9054 13.4399 88.4905 13.021C88.0922 12.584 87.8931 12.0468 87.8931 11.4095C87.8931 10.7721 88.0922 10.244 88.4905 9.8252C88.9054 9.38817 89.4199 9.16965 90.034 9.16965C90.6481 9.16965 91.1542 9.38817 91.5526 9.8252C91.9675 10.244 92.1749 10.7721 92.1749 11.4095C92.1749 12.0468 91.9675 12.584 91.5526 13.021C91.1542 13.4399 90.6481 13.6493 90.034 13.6493ZM91.7517 15.4521V30.5845H88.2665V15.4521H91.7517Z" fill="#EBEEF5"/>
<path d="M70.9963 22.9637C70.9963 21.434 71.2702 20.0774 71.8179 18.8937C72.3821 17.7101 73.1373 16.7996 74.0833 16.1623C75.0458 15.5249 76.1163 15.2062 77.2946 15.2062C78.3236 15.2062 79.2198 15.4339 79.9833 15.8891C80.7633 16.3444 81.3856 16.918 81.8503 17.6099V15.4521H85.3605V30.5845H81.8503V28.372C81.4022 29.0822 80.7799 29.674 79.9833 30.1475C79.2032 30.6027 78.2987 30.8304 77.2698 30.8304C76.108 30.8304 75.0458 30.5026 74.0833 29.847C73.1373 29.1915 72.3821 28.2719 71.8179 27.0882C71.2702 25.8864 70.9963 24.5115 70.9963 22.9637ZM81.8503 23.0183C81.8503 22.0896 81.6844 21.2975 81.3524 20.6419C81.0205 19.9681 80.5724 19.4583 80.0081 19.1123C79.4439 18.7481 78.8381 18.566 78.1908 18.566C77.5436 18.566 76.9461 18.739 76.3984 19.085C75.8508 19.4309 75.4027 19.9408 75.0541 20.6146C74.7222 21.2701 74.5563 22.0532 74.5563 22.9637C74.5563 23.8742 74.7222 24.6754 75.0541 25.3674C75.4027 26.0411 75.8508 26.5601 76.3984 26.9243C76.9627 27.2885 77.5602 27.4706 78.1908 27.4706C78.8381 27.4706 79.4439 27.2976 80.0081 26.9516C80.5724 26.5874 81.0205 26.0776 81.3524 25.422C81.6844 24.7482 81.8503 23.947 81.8503 23.0183Z" fill="#EBEEF5"/>
<path d="M68.9447 11.5187V30.5845H65.4595V18.1836L60.8042 30.5845H58.1654L53.4852 18.1836V30.5845H50V11.5187H53.9582L59.4848 25.6952L65.0114 11.5187H68.9447Z" fill="#EBEEF5"/>
</svg>
